<?xml version="1.0" encoding="UTF-8" standalone="no"?>
<!DOCTYPE svg PUBLIC "-//W3C//DTD SVG 1.1//EN" "http://www.w3.org/Graphics/SVG/1.1/DTD/svg11.dtd">
<svg width="100%" height="100%" viewBox="0 0 545 545" version="1.1" xmlns="http://www.w3.org/2000/svg" xmlns:xlink="http://www.w3.org/1999/xlink" xml:space="preserve" xmlns:serif="http://www.serif.com/" style="fill-rule:evenodd;clip-rule:evenodd;stroke-linejoin:round;stroke-miterlimit:2;">
    <g>
        <path d="M272.1,0C2.1,0 0,121.8 0,272.1C0,422.4 2.1,544.2 272.1,544.2C542.1,544.2 544.2,422.4 544.2,272.1C544.2,121.8 542.1,0 272.1,0Z" style="fill:rgb(51,63,76);fill-rule:nonzero;"/>
        <g transform="matrix(1,0,0,1,45.185,53.6316)">
            <g transform="matrix(0.0747492,0,0,-0.0747492,-156.899,601.067)">
                <path d="M3124,6673C3181,6633 3210,6570 3217,6474C3222,6396 3250,6298 3289,6222L3308,6184L3399,6185C3505,6185 3503,6184 3549,6307C3568,6358 3580,6414 3584,6469C3593,6580 3630,6648 3702,6686C3734,6703 3817,6704 3857,6689C3942,6657 3999,6551 3979,6459C3968,6408 3964,6403 3849,6297C3812,6263 3798,6239 3772,6167L3740,6080L3798,6022C3831,5989 3869,5937 3887,5900C3945,5783 3950,5414 3950,5414C3950,5414 3958,5002 4010,4848C4114,4537 4348,4291 4631,4195C4765,4149 4850,4140 5146,4140L5419,4140L5500,4085C5719,3936 5930,3870 6187,3870C6424,3870 6664,3943 6858,4074L6911,4110L7164,3900C7446,3667 7455,3657 7448,3560C7443,3489 7408,3437 7346,3409C7307,3391 7250,3390 5874,3390C4938,3390 4406,3394 4339,3401C3932,3442 3605,3604 3357,3887C3094,4188 2936,4593 2875,5125C2853,5318 2844,5698 2859,5773C2878,5864 2932,5959 3000,6024L3059,6081L3025,6178C2990,6277 2978,6293 2888,6362C2842,6397 2820,6446 2820,6512C2820,6666 2999,6760 3124,6673Z" style="fill:white;"/>
            </g>
            <g transform="matrix(0.0747492,0,0,-0.0747492,-156.899,601.067)">
                <path d="M5905,6840C6452,6787 6938,6463 7173,5995C7358,5624 7365,5170 7191,4804C7123,4661 7051,4560 6941,4449C6759,4266 6556,4161 6315,4124C6129,4095 5950,4125 5765,4215C5454,4366 5255,4648 5233,4965C5214,5247 5357,5507 5595,5620C5699,5669 5765,5684 5875,5683C5984,5682 6071,5656 6156,5602C6231,5553 6275,5503 6314,5420C6369,5303 6361,5146 6294,5039C6216,4915 6053,4877 5938,4957C5894,4987 5850,5068 5850,5118C5850,5168 5805,5210 5750,5210C5662,5210 5620,5166 5620,5073C5620,4957 5682,4845 5790,4765C5868,4709 5946,4679 6040,4673C6190,4662 6311,4710 6426,4824C6612,5010 6652,5288 6529,5540C6495,5610 6471,5641 6396,5715C6323,5788 6289,5814 6220,5847C6089,5911 6028,5925 5865,5924C5702,5924 5620,5906 5482,5838C5311,5753 5172,5612 5084,5435C5022,5308 4999,5213 4993,5050C4984,4820 5036,4628 5158,4441L5174,4417L4989,4423C4781,4429 4739,4437 4611,4501C4489,4561 4397,4655 4336,4781C4251,4959 4216,5183 4238,5418C4259,5644 4302,5796 4401,5995C4683,6563 5283,6900 5905,6840Z" style="fill:white;"/>
            </g>
            <g transform="matrix(0.0747492,0,0,-0.0747492,-156.899,601.067)">
                <path d="M3124,6673C3181,6633 3210,6570 3217,6474C3222,6396 3250,6298 3289,6222L3308,6184L3399,6185C3505,6185 3503,6184 3549,6307C3568,6358 3580,6414 3584,6469C3593,6580 3630,6648 3702,6686C3734,6703 3817,6704 3857,6689C3942,6657 3999,6551 3979,6459C3968,6408 3964,6403 3849,6297C3812,6263 3798,6239 3772,6167L3740,6080L3798,6022C3831,5989 3869,5937 3887,5900C3945,5783 3950,5414 3950,5414C3950,5414 3958,5002 4010,4848C4114,4537 4348,4291 4631,4195C4765,4149 4850,4140 5146,4140L5419,4140L5500,4085C5719,3936 5930,3870 6187,3870C6424,3870 6664,3943 6858,4074L6911,4110L7164,3900C7446,3667 7455,3657 7448,3560C7443,3489 7408,3437 7346,3409C7307,3391 7250,3390 5874,3390C4938,3390 4406,3394 4339,3401C3932,3442 3605,3604 3357,3887C3094,4188 2936,4593 2875,5125C2853,5318 2844,5698 2859,5773C2878,5864 2932,5959 3000,6024L3059,6081L3025,6178C2990,6277 2978,6293 2888,6362C2842,6397 2820,6446 2820,6512C2820,6666 2999,6760 3124,6673Z" style="fill:white;"/>
            </g>
            <g transform="matrix(0.0747492,0,0,-0.0747492,-156.899,601.067)">
                <path d="M5905,6840C6452,6787 6938,6463 7173,5995C7358,5624 7365,5170 7191,4804C7123,4661 7051,4560 6941,4449C6759,4266 6556,4161 6315,4124C6129,4095 5950,4125 5765,4215C5454,4366 5255,4648 5233,4965C5214,5247 5357,5507 5595,5620C5699,5669 5765,5684 5875,5683C5984,5682 6071,5656 6156,5602C6231,5553 6275,5503 6314,5420C6369,5303 6361,5146 6294,5039C6216,4915 6053,4877 5938,4957C5894,4987 5850,5068 5850,5118C5850,5168 5805,5210 5750,5210C5662,5210 5620,5166 5620,5073C5620,4957 5682,4845 5790,4765C5868,4709 5946,4679 6040,4673C6190,4662 6311,4710 6426,4824C6612,5010 6652,5288 6529,5540C6495,5610 6471,5641 6396,5715C6323,5788 6289,5814 6220,5847C6089,5911 6028,5925 5865,5924C5702,5924 5620,5906 5482,5838C5311,5753 5172,5612 5084,5435C5022,5308 4999,5213 4993,5050C4984,4820 5036,4628 5158,4441L5174,4417L4989,4423C4781,4429 4739,4437 4611,4501C4489,4561 4397,4655 4336,4781C4251,4959 4216,5183 4238,5418C4259,5644 4302,5796 4401,5995C4683,6563 5283,6900 5905,6840Z" style="fill:white;"/>
            </g>
        </g>
    </g>
</svg>
